<?xml version="1.0" encoding="UTF-8"?>
<svg id="Layer_1" data-name="Layer 1" xmlns="http://www.w3.org/2000/svg" xmlns:xlink="http://www.w3.org/1999/xlink" viewBox="0 0 864 200.0085">
  <g id="type">
    <a xlink:href="86.6666666666667">
      <path id="type_PathItem_" data-name="type &amp;lt;PathItem&amp;gt;" d="M323.937,100.7362c-3.295-2.6221-6.9248-4.7733-10.8869-6.4484-3.9648-1.6748-7.9296-3.182-11.8917-4.5221-3.9648-1.3398-7.5946-2.7634-10.8869-4.2709-3.2948-1.5075-5.9457-3.3499-7.9556-5.5272s-3.0149-5.051-3.0149-8.6256c0-4.2423,1.6462-7.537,4.9409-9.8819,3.2924-2.3449,7.8434-3.5173,13.6504-3.5173,4.6897,0,8.8482,.921,12.478,2.7634,3.6274,1.8425,7.1184,4.6638,10.4681,8.4583l13.0642-13.0642c-3.7972-4.6897-8.7381-8.5418-14.8228-11.5567-6.0871-3.0149-12.9804-4.5221-20.6847-4.5221-7.1471,0-13.6244,1.2849-19.429,3.8521-5.807,2.5698-10.4129,6.2808-13.8178,11.1381-3.4072,4.8571-5.1083,10.7482-5.1083,17.6701,0,6.0296,1.0048,10.9994,3.0146,14.9067,2.0099,3.9099,4.6611,7.0919,7.9559,9.5469,3.2921,2.4573,6.9219,4.4958,10.8867,6.1134,3.9621,1.6199,7.9269,3.0722,11.8917,4.3547,3.9621,1.2849,7.5922,2.7372,10.8869,4.3547,3.2921,1.6199,5.9457,3.6584,7.9556,6.1134,2.0101,2.4573,3.0149,5.6396,3.0149,9.5469,0,4.6897-1.926,8.3744-5.7784,11.0543-3.8523,2.6796-9.0182,4.0197-15.4929,4.0197-6.9245,0-12.6191-1.3112-17.0839-3.9359-4.4672-2.6223-8.3195-6.281-11.5567-10.9705l-13.0642,13.0639c5.1346,6.477,10.9419,11.3893,17.4189,14.7393,6.4744,3.3497,14.3464,5.0245,23.6161,5.0245,12.6167,0,22.637-3.0696,30.0642-9.2118,7.4245-6.1396,11.1381-14.4592,11.1381-24.9559,0-6.2521-1.0051-11.4443-3.0149-15.5764-2.0099-4.1298-4.6635-7.5084-7.9556-10.1334Z" style="fill: #222;"/>
    </a>
    <a xlink:href="86.6666666666667">
      <path id="type_PathItem_-2" data-name="type &amp;lt;PathItem&amp;gt;" d="M375.5242,97.7215c3.5173-2.065,7.5633-3.0985,12.1429-3.0985,3.9072,0,7.5084,.6987,10.8031,2.0934,3.2924,1.3976,6.1134,3.4913,8.4583,6.2808l12.0591-12.2265c-3.7972-4.4645-8.4031-7.8983-13.8178-10.3007-5.4173-2.3998-11.2506-3.6011-17.5027-3.6011-7.9296,0-15.1027,1.8425-21.5224,5.5274-6.4221,3.6847-11.4729,8.6832-15.1576,14.9902-3.685,6.3097-5.5272,13.4278-5.5272,21.3548,0,7.8171,1.8422,14.9067,5.5272,21.2712,3.6847,6.3648,8.7354,11.3893,15.1576,15.0743,6.4198,3.6844,13.5928,5.5269,21.5224,5.5269,6.2521,0,12.0854-1.2011,17.5027-3.6011,5.4147-2.3995,10.0206-5.833,13.8178-10.3005l-12.0591-12.2268c-2.3449,2.7924-5.1659,4.886-8.4583,6.2808-3.2948,1.3976-6.8959,2.0939-10.8031,2.0939-4.5797,0-8.6256-1.0313-12.1429-3.0987-3.5173-2.0648-6.2548-4.912-8.2071-8.5418-1.9547-3.6274-2.9308-7.7885-2.9308-12.4782,0-4.7996,.9761-8.9869,2.9308-12.5615,1.9523-3.5725,4.6897-6.3908,8.2071-8.4583Z" style="fill: #222;"/>
    </a>
    <path id="type_CompoundPathItem_" data-name="type &amp;lt;CompoundPathItem&amp;gt;" d="M488.8317,82.3963c-6.3646-3.685-13.5117-5.5274-21.4386-5.5274-7.8171,0-14.9067,1.8714-21.2712,5.6112-6.3646,3.7422-11.418,8.7381-15.1579,14.9902-3.7422,6.2548-5.6107,13.2891-5.6107,21.1036s1.8685,14.9067,5.6107,21.2712c3.7399,6.3646,8.7933,11.418,15.1579,15.1579,6.3646,3.7422,13.4541,5.6107,21.2712,5.6107,7.9269,0,15.074-1.8685,21.4386-5.6107,6.3646-3.7399,11.4153-8.7933,15.1579-15.1579,3.7396-6.3646,5.6107-13.4544,5.6107-21.2712s-1.8711-14.8777-5.6107-21.1874c-3.7425-6.307-8.7933-11.3055-15.1579-14.9902Zm-1.0886,48.7394c-1.9549,3.6847-4.6897,6.5609-8.2071,8.6256-3.5173,2.0674-7.5657,3.0987-12.1429,3.0987-4.4672,0-8.4583-1.0313-11.9756-3.0987-3.5173-2.0648-6.2548-4.9409-8.2071-8.6256-1.9547-3.685-2.9308-7.872-2.9308-12.5618s.9761-8.8195,2.9308-12.3941c1.9523-3.5725,4.6897-6.3908,8.2071-8.4583,3.5173-2.065,7.5084-3.0985,11.9756-3.0985,4.5773,0,8.597,1.0334,12.0591,3.0985,3.4597,2.0674,6.1972,4.8858,8.2071,8.4583,2.0099,3.5746,3.0149,7.7044,3.0149,12.3941s-.9788,8.8768-2.9311,12.5618Z" style="fill: #222;"/>
    <a xlink:href="86.6666666666667">
      <path id="type_PathItem_-3" data-name="type &amp;lt;PathItem&amp;gt;" d="M575.0867,79.0464c-3.2399-1.4496-6.8672-2.1775-10.8869-2.1775-9.1569,0-15.9953,3.1563-20.5174,9.4633-.1441,.2011-.2793,.4097-.4188,.6147v-8.4029h-18.4237v80.3949h18.4237v-44.7197c0-6.9221,1.6751-12.0018,5.0248-15.2417,3.3497-3.2372,7.5919-4.8569,12.7292-4.8569,2.3449,0,4.4096,.3348,6.1972,1.0048,1.7846,.67,3.4046,1.7873,4.8571,3.3497l12.0594-12.3941c-2.7924-3.2375-5.8073-5.5821-9.0445-7.0346Z" style="fill: #222;"/>
    </a>
    <path id="type_CompoundPathItem_-2" data-name="type &amp;lt;CompoundPathItem&amp;gt;" d="M648.9481,87.4776c-2.317-2.6709-5.0794-4.8962-8.2906-6.6726-4.7473-2.6221-10.1909-3.9362-16.3303-3.9362-7.2596,0-13.818,1.8714-19.68,5.6112-5.8622,3.7422-10.497,8.7667-13.9016,15.074-3.4075,6.3094-5.1086,13.4278-5.1086,21.3548,0,7.8171,1.7011,14.8804,5.1086,21.1874,3.4046,6.3097,8.0394,11.3055,13.9016,14.9905,5.8619,3.6844,12.4204,5.5269,19.68,5.5269,6.1394,0,11.6116-1.3136,16.4138-3.9359,3.193-1.7445,5.9268-3.9247,8.2071-6.5354v8.7965h18.424V78.544h-18.424v8.9337Zm-5.1083,48.8502c-4.1873,4.5799-9.6883,6.867-16.4979,6.867-4.4672,0-8.4031-1.0311-11.8079-3.0985-3.4072-2.065-6.0871-4.9409-8.0394-8.6259-1.9549-3.6844-2.9311-7.9269-2.9311-12.7292,0-4.7996,.9761-9.0442,2.9311-12.7292,1.9523-3.6847,4.6322-6.5582,8.0394-8.6256,3.4048-2.0648,7.3407-3.0987,11.8079-3.0987,4.5773,0,8.5683,1.034,11.9756,3.0987,3.4048,2.0674,6.0558,4.9409,7.9559,8.6256,1.8974,3.685,2.8473,7.9296,2.8473,12.7292,0,7.1471-2.0937,13.0093-6.2808,17.5865Z" style="fill: #222;"/>
    <path id="type_CompoundPathItem_-3" data-name="type &amp;lt;CompoundPathItem&amp;gt;" d="M746.0895,87.4776c-2.317-2.6709-5.0794-4.8962-8.2906-6.6726-4.7473-2.6221-10.1909-3.9362-16.3303-3.9362-7.2596,0-13.818,1.8714-19.68,5.6112-5.8622,3.7422-10.497,8.7667-13.9016,15.074-3.4075,6.3094-5.1086,13.4278-5.1086,21.3548,0,7.8171,1.7011,14.8804,5.1086,21.1874,3.4046,6.3097,8.0394,11.3055,13.9016,14.9905,5.8619,3.6844,12.4204,5.5269,19.68,5.5269,6.1394,0,11.6116-1.3136,16.4138-3.9359,3.193-1.7445,5.9268-3.9247,8.2071-6.5354v8.7965h18.424V38.3467h-18.424v49.131Zm-1.6748,43.9928c-1.9,3.685-4.551,6.5609-7.9559,8.6259-3.4072,2.0674-7.3983,3.0985-11.9756,3.0985-4.4672,0-8.4031-1.0311-11.8079-3.0985-3.4072-2.065-6.0871-4.9409-8.0394-8.6259-1.9549-3.6844-2.9311-7.9269-2.9311-12.7292,0-4.7996,.9761-9.0442,2.9311-12.7292,1.9523-3.6847,4.6322-6.5582,8.0394-8.6256,3.4048-2.0648,7.3956-3.0987,11.9756-3.0987,4.4645,0,8.4007,1.034,11.8079,3.0987,3.4048,2.0674,6.0558,4.9409,7.9559,8.6256,1.8974,3.685,2.8473,7.9296,2.8473,12.7292,0,4.8022-.9499,9.0447-2.8473,12.7292Z" style="fill: #222;"/>
    <path id="type_CompoundPathItem_-4" data-name="type &amp;lt;CompoundPathItem&amp;gt;" d="M858.3893,97.3865c-3.7425-6.307-8.7933-11.3055-15.1579-14.9902-6.3646-3.685-13.5117-5.5274-21.4386-5.5274-7.8171,0-14.9067,1.8714-21.2712,5.6112-6.3646,3.7422-11.418,8.7381-15.1579,14.9902-3.7422,6.2548-5.6107,13.2891-5.6107,21.1036s1.8685,14.9067,5.6107,21.2712c3.7399,6.3646,8.7933,11.418,15.1579,15.1579,6.3646,3.7422,13.4541,5.6107,21.2712,5.6107,7.9269,0,15.074-1.8685,21.4386-5.6107,6.3646-3.7399,11.4153-8.7933,15.1579-15.1579,3.7396-6.3646,5.6107-13.4544,5.6107-21.2712s-1.8711-14.8777-5.6107-21.1874Zm-16.2465,33.7492c-1.9549,3.6847-4.6897,6.5609-8.2071,8.6256-3.5173,2.0674-7.5657,3.0987-12.1429,3.0987-4.4672,0-8.4583-1.0313-11.9756-3.0987-3.5173-2.0648-6.2548-4.9409-8.2071-8.6256-1.9547-3.685-2.9308-7.872-2.9308-12.5618s.9761-8.8195,2.9308-12.3941c1.9523-3.5725,4.6897-6.3908,8.2071-8.4583,3.5173-2.065,7.5084-3.0985,11.9756-3.0985,4.5773,0,8.597,1.0334,12.0591,3.0985,3.4597,2.0674,6.1972,4.8858,8.2071,8.4583,2.0099,3.5746,3.0149,7.7044,3.0149,12.3941s-.9788,8.8768-2.9311,12.5618Z" style="fill: #222;"/>
  </g>
  <g id="logoMark">
    <a xlink:href="35.1066666666667">
      <path id="logoMark_PathItem_" data-name="logoMark &amp;lt;PathItem&amp;gt;" d="M192.2416,0c8.9201,0,13.3874,10.7848,7.0799,17.0923h0s-49.739,49.739-49.739,49.739l-6.4641-1.3893c-3.9459-.849-8.0124-1.2783-12.079-1.2783-15.3449,0-29.7779,5.9769-40.639,16.833l-22.043,22.043-32.4528,32.4577c-5.395-2.3951-10.4534-5.8003-14.8851-10.2156C1.6288,105.963,1.9459,73.9766,21.3006,54.6218L59.0172,16.9053C69.8414,6.081,84.5223,0,99.8301,0h92.4115Z" style="fill: #4fd97f;"/>
    </a>
    <a xlink:href="53.8670588235294">
      <path id="logoMark_PathItem_-2" data-name="logoMark &amp;lt;PathItem&amp;gt;" d="M10.0326,200.0085c-8.9201,0-13.3874-10.7848-7.0799-17.0923h0s49.739-49.739,49.739-49.739l6.4641,1.3893c3.9459,.849,8.0124,1.2783,12.079,1.2783,15.3449,0,29.7779-5.9769,40.639-16.833l22.043-22.043,32.4528-32.4577c5.395,2.3951,10.4534,5.8003,14.8851,10.2156,19.3907,19.3188,19.0736,51.3052-.2812,70.66l-37.7165,37.7165c-10.8243,10.8243-25.5051,16.9053-40.813,16.9053H10.0326Z" style="fill: #5271eb;"/>
    </a>
  </g>
</svg>