<?xml version="1.0" encoding="UTF-8"?>
<svg id="Layer_1" data-name="Layer 1" xmlns="http://www.w3.org/2000/svg" xmlns:xlink="http://www.w3.org/1999/xlink" viewBox="0 0 205.629 200.0085">
  <g id="logoMark">
    <a xlink:href="35.1066666666667">
      <path id="logoMark_PathItem_" data-name="logoMark &amp;lt;PathItem&amp;gt;" d="M192.2416,0c8.9201,0,13.3874,10.7848,7.0799,17.0923h0s-49.739,49.739-49.739,49.739l-6.4641-1.3893c-3.9459-.849-8.0124-1.2783-12.079-1.2783-15.3449,0-29.7779,5.9769-40.639,16.833l-22.043,22.043-32.4528,32.4577c-5.395-2.3951-10.4534-5.8003-14.8851-10.2156C1.6288,105.963,1.9459,73.9766,21.3006,54.6218L59.0172,16.9053C69.8414,6.081,84.5223,0,99.8301,0h92.4115Z" style="fill: #4fd97f;"/>
    </a>
    <a xlink:href="53.8670588235294">
      <path id="logoMark_PathItem_-2" data-name="logoMark &amp;lt;PathItem&amp;gt;" d="M10.0326,200.0085c-8.9201,0-13.3874-10.7848-7.0799-17.0923h0s49.739-49.739,49.739-49.739l6.4641,1.3893c3.9459,.849,8.0124,1.2783,12.079,1.2783,15.3449,0,29.7779-5.9769,40.639-16.833l22.043-22.043,32.4528-32.4577c5.395,2.3951,10.4534,5.8003,14.8851,10.2156,19.3907,19.3188,19.0736,51.3052-.2812,70.66l-37.7165,37.7165c-10.8243,10.8243-25.5051,16.9053-40.813,16.9053H10.0326Z" style="fill: #5271eb;"/>
    </a>
  </g>
</svg>